<?xml version="1.0" encoding="utf-8"?>
<svg viewBox="0 166.1241 499.9989 41.8718" xmlns="http://www.w3.org/2000/svg" fill='#fff2d8'>
  <path d="M 722.168 543.579 C 722.168 519.579 669 582 601 554 C 540 530 532 529 474 540 C 405 553 361 547 315 520 C 299 510 265 494 240 485 C 215 476 177 462 156 454 C 134 445 91 436 61 432 L 5 425 L 2 212 L 0 0 L 2890 0 L 5780 0 L 5780 251 L 5780 503 L 5713 495 C 5610 483 5563 486 5536 504 C 5502 526 5464 524 5447 500 C 5422 465 5346 440 5260 440 C 5180 440 5037 463 5016 478 C 4996 495 4887 504 4700 505 C 4594 506 4498 512 4475 518 C 4420 534 4384 533 4355 514 C 4338 503 4298 497 4219 494 C 4123 490 4105 492 4088 507 C 4072 521 4046 525 3937 527 C 3839 530 3790 535 3749 550 C 3703 565 3665 569 3521 569 C 3388 569 3342 565 3326 554 C 3314 547 3265 533 3218 524 L 3132 507 L 3076 535 C 3026 560 3018 562 2976 551 C 2912 535 2901 537 2894 566 C 2888 588 2884 591 2861 585 C 2847 581 2792 569 2740 559 C 2688 548 2634.205 531.696 2621 523 C 2580 496 2615.365 537.006 2366.503 542.303 C 2294.318 543.839 2275.356 559.586 2259.356 553.586 C 2251.356 550.586 2201.429 611.929 2197.429 591.929 C 2191.429 560.929 2182 567 2125 539 C 2074 514 2054 509 2028 515 C 2010 518 1979 521 1960 521 C 1941 521 1899.372 529.637 1870 544 C 1844.512 556.464 1813.492 573.464 1806.49 569.424 C 1771.702 549.354 1740.746 574.46 1698 562 C 1653.744 549.1 1578.336 476.282 1279.336 466.282 C 1241.336 465.282 1155 520 1094 515 C 994 508 977 509 914 530 C 857 549 851.175 492.607 810.175 536.607 C 788.457 560.062 777.673 540.38 753.942 570.888 C 741.865 586.414 722.168 559.417 722.168 543.579 Z" transform="matrix(0.08650500327348709, 0, 0, -0.07026100903749466, -0.0000010000001253729351, 207.9958953857422)"/>
</svg>
